<svg width="24" height="24" viewBox="0 0 24 24" fill="none" xmlns="http://www.w3.org/2000/svg">
<path d="M12 23C5.92487 23 1 18.0751 1 12C1 5.92487 5.92487 1 12 1C18.0751 1 23 5.92487 23 12C23 18.0751 18.0751 23 12 23ZM12 17C12.2652 17 12.5195 16.8946 12.707 16.707L16.207 13.207C16.5976 12.8165 16.5976 12.1835 16.207 11.793C15.8165 11.4024 15.1835 11.4024 14.793 11.793L13 13.5859L13 7.5C13 6.94772 12.5523 6.5 12 6.5C11.4477 6.5 11 6.94772 11 7.5L11 13.5859L9.20703 11.793C8.81651 11.4024 8.18349 11.4024 7.79297 11.793C7.40245 12.1835 7.40245 12.8165 7.79297 13.207L11.293 16.707C11.4805 16.8946 11.7348 17 12 17Z" fill="#1F1F1F"/>
</svg>
